<svg width="48" height="48" viewBox="0 0 48 48" fill="none" xmlns="http://www.w3.org/2000/svg">
<g clip-path="url(#clip0_17_232)">
<rect width="48" height="48" fill="white"/>
<mask id="path-1-inside-1_17_232" fill="white">
<path fill-rule="evenodd" clip-rule="evenodd" d="M15.9579 12C15.0891 12 14.3197 12.5609 14.0539 13.388L12.8929 17H8C3.58172 17 0 20.5817 0 25V39C0 43.4183 3.58172 47 8 47H40C44.4183 47 48 43.4183 48 39V25C48 20.5817 44.4183 17 40 17H34.7857L33.474 13.3273C33.1898 12.5313 32.4358 12 31.5906 12H15.9579Z"/>
</mask>
<path d="M14.0539 13.388L16.9099 14.306L16.91 14.306L14.0539 13.388ZM12.8929 17V20H15.0797L15.7489 17.918L12.8929 17ZM34.7857 17L31.9605 18.009L32.6716 20H34.7857V17ZM33.474 13.3273L30.6488 14.3363L30.6488 14.3363L33.474 13.3273ZM16.91 14.306C16.777 14.7196 16.3923 15 15.9579 15V9C13.786 9 11.8624 10.4022 11.1978 12.47L16.91 14.306ZM15.7489 17.918L16.9099 14.306L11.1978 12.47L10.0368 16.082L15.7489 17.918ZM8 20H12.8929V14H8V20ZM3 25C3 22.2386 5.23858 20 8 20V14C1.92487 14 -3 18.9249 -3 25H3ZM3 39V25H-3V39H3ZM8 44C5.23858 44 3 41.7614 3 39H-3C-3 45.0751 1.92487 50 8 50V44ZM40 44H8V50H40V44ZM45 39C45 41.7614 42.7614 44 40 44V50C46.0751 50 51 45.0751 51 39H45ZM45 25V39H51V25H45ZM40 20C42.7614 20 45 22.2386 45 25H51C51 18.9249 46.0751 14 40 14V20ZM34.7857 20H40V14H34.7857V20ZM30.6488 14.3363L31.9605 18.009L37.6109 15.991L36.2993 12.3183L30.6488 14.3363ZM31.5906 15C31.168 15 30.791 14.7343 30.6488 14.3363L36.2993 12.3183C35.5886 10.3283 33.7036 9 31.5906 9V15ZM15.9579 15H31.5906V9H15.9579V15Z" fill="#152C5B" mask="url(#path-1-inside-1_17_232)"/>
<circle cx="24" cy="32" r="6.5" stroke="#D1131F" stroke-width="3"/>
<path d="M42 23L35 23" stroke="#152C5B" stroke-width="2" stroke-linecap="round"/>
</g>
<defs>
<clipPath id="clip0_17_232">
<rect width="48" height="48" fill="white"/>
</clipPath>
</defs>
</svg>
