<svg width="48" height="48" viewBox="0 0 48 48" fill="none" xmlns="http://www.w3.org/2000/svg">
<g clip-path="url(#clip0_17_214)">
<rect width="48" height="48" fill="white"/>
<path d="M25.5 39.5C25.5 40.779 24.5492 42.2522 22.3175 43.4921C20.1366 44.7037 17.0221 45.5 13.5 45.5C9.97792 45.5 6.86341 44.7037 4.68252 43.4921C2.45082 42.2522 1.5 40.779 1.5 39.5C1.5 38.221 2.45082 36.7478 4.68252 35.5079C6.86341 34.2963 9.97792 33.5 13.5 33.5C17.0221 33.5 20.1366 34.2963 22.3175 35.5079C24.5492 36.7478 25.5 38.221 25.5 39.5Z" stroke="#152C5B" stroke-width="3"/>
<path d="M25.5 11.2941C25.5 14.1533 24.057 21.1346 21.6447 27.451C20.4451 30.5919 19.0471 33.4554 17.5449 35.5052C15.9846 37.6343 14.6003 38.5 13.5 38.5C12.3997 38.5 11.0154 37.6343 9.45507 35.5052C7.9529 33.4554 6.55491 30.5919 5.35534 27.451C2.94304 21.1346 1.5 14.1533 1.5 11.2941C1.5 6.1245 6.61081 1.5 13.5 1.5C20.3892 1.5 25.5 6.1245 25.5 11.2941Z" fill="white" stroke="#152C5B" stroke-width="3"/>
<path d="M18.5 14C18.5 17.1442 16.1587 19.5 13.5 19.5C10.8413 19.5 8.5 17.1442 8.5 14C8.5 10.8558 10.8413 8.5 13.5 8.5C16.1587 8.5 18.5 10.8558 18.5 14Z" stroke="#D1131F" stroke-width="3"/>
</g>
<defs>
<clipPath id="clip0_17_214">
<rect width="48" height="48" fill="white"/>
</clipPath>
</defs>
</svg>
